<svg width="63" height="53" viewBox="0 0 63 53" fill="none" xmlns="http://www.w3.org/2000/svg">
<path d="M0 24.7969C0 19.9219 2.36719 15.3516 6.32812 12.6328C6.32812 12.5391 6.32812 12.4453 6.32812 12.3516C6.32812 6.63281 10.9922 2.60156 16.8516 2.60156C18.5859 2.60156 20.3672 2.97656 22.0781 3.72656C24.2109 1.38281 27.3516 0 31.0078 0C34.2891 0 37.3594 1.40625 39.3047 3.70312C39.9141 3.58594 40.5234 3.49219 40.9688 3.51562C46.4062 3.51562 51.1641 7.19531 52.4297 12.8672C58.6875 14.1094 62.7891 18.8438 62.7891 24.9141C62.7891 28.0547 61.8984 30.7266 60.3047 32.7656C60.4453 34.3359 60.5391 36.1406 60.5391 38.5312C60.5391 45.8672 57.4219 52.8047 51.4922 52.8047C47.4141 52.8047 44.7656 49.0547 44.1328 44.9531C43.6172 44.9766 43.0781 45 42.6094 45C39.5391 45 36.9141 43.9688 35.1797 42.1172C33.3516 42.5625 31.5469 42.7734 29.8359 42.7734C25.4062 42.7734 21.5156 41.3203 18.8906 39.0469C17.6719 39.2812 16.3828 39.3984 15.0234 39.3984C6.02344 39.3984 0 33.5625 0 24.7969ZM18.9844 11.6016C19.0312 10.125 19.3125 8.74219 19.7812 7.5C18.7969 7.125 17.7891 6.96094 16.8281 6.96094C13.2891 6.96094 10.6641 9.1875 10.6641 12.3516C10.6641 15.2344 12.7031 17.2969 16.0078 17.2969C17.2031 17.2969 18.1875 18.2812 18.1875 19.4531C18.1875 20.6484 17.2031 21.6328 16.0078 21.6328C12.0938 21.6328 9.11719 19.9453 7.54688 17.2266C5.53125 19.1484 4.33594 21.8672 4.33594 24.7734C4.33594 30.9609 8.625 35.0859 15.0938 35.0859C21.3984 35.0859 25.5703 31.5234 25.5703 26.2031C25.5703 24.4922 25.0547 23.1094 24.1172 22.2188C22.8516 21.0469 22.2422 20.7656 22.2422 19.5C22.2422 18.375 23.0859 17.6016 24.3281 17.6016C25.2188 17.6016 25.8047 17.8594 26.7422 18.6562C27.4922 19.2891 28.1016 20.0625 28.6172 20.9766C31.8047 20.1094 33.0469 18.0703 33 14.7656C32.9766 13.5703 33.9609 12.5859 35.1562 12.5859C36.3281 12.5859 37.3359 13.5703 37.3594 14.7656C37.4062 20.0391 34.9453 23.6719 29.7891 25.1016C29.8359 25.5 29.8359 25.875 29.8359 26.2734C29.8359 30.9609 27.7266 34.7344 24.1172 37.0078C25.875 37.9219 28.1016 38.4375 30.3281 38.4375C31.2656 38.4375 32.2266 38.3438 33.1641 38.1562C33.0469 37.5703 33 36.9844 33 36.375C33 25.4531 48.3984 26.7422 48.3984 15.8672C48.3984 11.0156 44.5781 7.89844 40.4531 7.85156C39.6328 7.85156 38.7891 7.94531 38.0391 8.15625C37.4766 8.29688 37.125 8.25 36.8906 7.80469C35.9531 5.71875 33.6328 4.33594 30.9844 4.33594C26.5781 4.33594 23.4609 7.47656 23.2734 11.8125C23.2266 13.1484 22.3359 13.9453 21.1406 13.9453C19.8984 13.9453 18.9375 13.0078 18.9844 11.6016ZM46.8281 34.9219C46.8281 33.7031 47.8125 32.6484 49.0312 32.7656C54.7031 33.2344 58.4531 30.0938 58.4531 24.9141C58.4531 20.9062 56.2266 18.0469 52.7109 17.25C51.7031 29.5312 37.4531 28.3125 37.4531 36.2344C37.4531 39.6797 40.3594 41.1562 44.9062 41.1562C45.6094 41.1562 46.3594 41.1328 46.9453 41.1328C47.3906 41.1328 47.625 41.3672 47.625 41.7422C47.625 44.8594 48.7969 48.4688 51.4922 48.4688C54.0938 48.4688 56.2266 44.25 56.2266 38.4609C56.2266 37.5703 56.1797 36.75 56.1328 35.9766C54.1172 36.8672 51.7031 37.2656 48.9844 37.0781C47.7656 37.0078 46.8281 36.1172 46.8281 34.9219Z" fill="white"/>
</svg>
