<svg width="46" height="51" viewBox="0 0 46 51" fill="none" xmlns="http://www.w3.org/2000/svg">
<path d="M6.5625 50.2266C2.50781 50.2266 0 47.3203 0 43.6641C0 42.4688 0.46875 40.9922 1.38281 39.6328L13.5 21.6094V4.5C12.2344 4.42969 11.3672 3.44531 11.3672 2.22656C11.3672 0.984375 12.3047 0 13.6172 0H32.1562C33.4922 0 34.4297 0.984375 34.4297 2.22656C34.4297 3.46875 33.4922 4.5 32.2969 4.5V21.6094L44.2266 39.3984C45.2812 40.9219 45.7969 42.4688 45.7969 43.6641C45.7969 47.3203 43.2656 50.2266 39.2109 50.2266H6.5625ZM6.98438 45.9375H38.8125C40.3125 45.9375 41.2734 44.7656 41.2734 43.4531C41.2734 43.0312 41.25 42.4922 40.8516 41.9531L27.9609 22.7578V4.5H17.8359V7.85156H22.0547C22.8516 7.85156 23.5312 8.50781 23.5312 9.28125C23.5312 10.125 22.8984 10.7578 22.0781 10.7578H17.8359V14.4375H22.0781C22.875 14.4375 23.5312 15.0938 23.5312 15.8672C23.5312 16.6875 22.9219 17.3203 22.1016 17.3203H17.8359V21.0234H22.1016C22.8984 21.0234 23.5312 21.6562 23.5312 22.4297C23.5312 23.2734 22.9219 23.9062 22.1016 23.9062H17.0625L4.92188 41.9531C4.54688 42.4922 4.52344 43.0312 4.52344 43.4531C4.52344 44.7656 5.46094 45.9375 6.98438 45.9375Z" fill="white"/>
</svg>
