<svg width="14" height="14" viewBox="0 0 14 14" fill="none" xmlns="http://www.w3.org/2000/svg">
<path d="M0.751953 5.71484C0.321289 5.71484 0 5.40039 0 4.97656V1.2373C0 0.451172 0.451172 0 1.23047 0H5.02441C5.45508 0 5.76953 0.314453 5.76953 0.745117C5.76953 1.17578 5.44824 1.4834 5.02441 1.4834H4.49805L2.33105 1.33984L4.01953 2.93945L5.99512 4.91504C6.13867 5.05859 6.2207 5.24316 6.2207 5.45508C6.2207 5.91309 5.89258 6.2207 5.43457 6.2207C5.23633 6.2207 5.05176 6.15234 4.9082 6.00195L2.93945 4.01953L1.33984 2.33789L1.49023 4.48438V4.97656C1.49023 5.40723 1.17578 5.71484 0.751953 5.71484ZM8.13477 13.1729C7.7041 13.1729 7.38965 12.8584 7.38965 12.4277C7.38965 11.9971 7.71094 11.6895 8.13477 11.6895H8.66113L10.8213 11.833L9.13965 10.2334L7.15723 8.25781C7.01367 8.11426 6.93848 7.92969 6.93848 7.71777C6.93848 7.25977 7.2666 6.95215 7.72461 6.95215C7.92285 6.95215 8.10742 7.02051 8.24414 7.1709L10.2129 9.15332L11.8125 10.835L11.6689 8.68848V8.19629C11.6689 7.76562 11.9834 7.45801 12.4072 7.45801C12.8379 7.45801 13.1592 7.77246 13.1592 8.19629V11.9355C13.1592 12.7217 12.708 13.1729 11.9219 13.1729H8.13477Z" fill="#646464"/>
</svg>
